<svg width="32" height="32" viewBox="0 0 32 32" fill="none" xmlns="http://www.w3.org/2000/svg">
<path d="M11 15.001H21C21.292 15.001 21.5317 15.0946 21.719 15.282C21.9063 15.4693 22 15.709 22 16.001C22 16.293 21.9063 16.5326 21.719 16.72C21.5317 16.9073 21.292 17.001 21 17.001H11C10.708 17.001 10.4683 16.9073 10.281 16.72C10.0937 16.5326 10 16.293 10 16.001C10 15.709 10.0937 15.4693 10.281 15.282C10.4683 15.0946 10.708 15.001 11 15.001ZM15 21.001V11.001C15 10.709 15.0937 10.4693 15.281 10.282C15.4683 10.0946 15.708 10.001 16 10.001C16.292 10.001 16.5317 10.0946 16.719 10.282C16.9063 10.4693 17 10.709 17 11.001V21.001C17 21.293 16.9063 21.5326 16.719 21.72C16.5317 21.9073 16.292 22.001 16 22.001C15.708 22.001 15.4683 21.9073 15.281 21.72C15.0937 21.5326 15 21.293 15 21.001ZM16 28.001C19.396 27.9176 22.224 26.7456 24.484 24.485C26.744 22.2243 27.916 19.3963 28 16.001C27.9167 12.605 26.7447 9.77698 24.484 7.51698C22.2233 5.25698 19.3953 4.08498 16 4.00098C12.604 4.08431 9.776 5.25631 7.516 7.51698C5.256 9.77764 4.084 12.6056 4 16.001C4.08333 19.397 5.25533 22.225 7.516 24.485C9.77667 26.745 12.6047 27.917 16 28.001ZM16 30.001C12.0413 29.897 8.74433 28.5273 6.109 25.892C3.47367 23.2566 2.104 19.9596 2 16.001C2.104 12.0423 3.47367 8.74531 6.109 6.10998C8.74433 3.47464 12.0413 2.10498 16 2.00098C19.9587 2.10498 23.2557 3.47464 25.891 6.10998C28.5263 8.74531 29.896 12.0423 30 16.001C29.896 19.9596 28.5263 23.2566 25.891 25.892C23.2557 28.5273 19.9587 29.897 16 30.001Z" fill="#EB008C"/>
</svg>
